# xmcd
#
# Track frame offsets:
#	150
#	51652
#	93448
#	123636
#	157824
#	192694
#	236981
#	264644
#
# Disc length: 3824 seconds
#
# Revision: 1
# Processed by: cddbd v1.5.2PL0 Copyright (c) Steve Scherf et al.
# Submitted via: audiograbber 1.83.01
#
DISCID=780eee08
DTITLE=Grateful Dead - 92-05-29 Sam Boyd Silver Bowl, Las Vegas NV
DYEAR=1900
DGENRE=
TTITLE0=Mississippi Half-Step
TTITLE1=Walkin Blues
TTITLE2=Peggy-O
TTITLE3=Black Throated Wind
TTITLE4=They Love Each Other
TTITLE5=Stuck Inside Of Mobile
TTITLE6=Jack-A-Roe
TTITLE7=Promised Land
EXTD=
EXTT0=
EXTT1=
EXTT2=
EXTT3=
EXTT4=
EXTT5=
EXTT6=
EXTT7=
PLAYORDER=
